<?xml version="1.0" encoding="UTF-8" standalone="no"?>
<!DOCTYPE svg PUBLIC "-//W3C//DTD SVG 20010904//EN"
              "http://www.w3.org/TR/2001/REC-SVG-20010904/DTD/svg10.dtd">

<svg xmlns="http://www.w3.org/2000/svg"
     width="1.43333in" height="1.43333in"
     viewBox="0 0 129 129">
  <path id="Selection"
        fill="none" stroke="black" stroke-width="1"
        d="M 21.00,88.00
           C 18.83,90.17 14.90,94.51 12.00,95.34
             8.55,96.34 5.66,93.45 6.66,90.00
             7.44,87.28 11.01,84.01 13.00,82.00
             13.00,82.00 28.00,67.00 28.00,67.00
             28.00,67.00 54.00,41.00 54.00,41.00
             56.87,38.14 61.45,32.37 66.00,33.66
             69.40,34.61 77.16,43.16 80.00,46.00
             80.00,46.00 110.00,76.00 110.00,76.00
             112.85,78.85 121.37,86.60 122.34,90.00
             123.34,93.45 120.45,96.34 117.00,95.34
             113.44,94.32 104.10,84.10 101.00,81.00
             101.00,81.00 64.00,44.00 64.00,44.00
             64.00,44.00 21.00,88.00 21.00,88.00 Z" />
</svg>
