<?xml version="1.0" encoding="utf-8"?>
<!-- Generator: Adobe Illustrator 19.1.0, SVG Export Plug-In . SVG Version: 6.00 Build 0)  -->
<svg version="1.1" id="Layer_1" xmlns="http://www.w3.org/2000/svg" xmlns:xlink="http://www.w3.org/1999/xlink" x="0px" y="0px"
	 viewBox="0 0 182.6 181.4" enable-background="new 0 0 182.6 181.4" xml:space="preserve">
<polygon fill="#2BB673" points="182.6,37 182.4,37 110.8,0.2 110.8,70.2 175.7,40.3 175.7,131.7 95.6,171.9 95.6,113 88.7,113 
	88.7,171.8 7,130.9 7,40.4 72.6,70.7 72.6,63.1 15.7,36.9 72.4,7.8 72.4,0 0.3,37 0.2,37 0.2,37.1 0,37.2 0.2,37.3 0.2,136.5 
	0.2,136.5 0.2,136.5 0.2,136.5 0.2,136.5 92.1,181.4 92.1,181.3 92.1,181.4 182.6,135.9 182.6,135.9 182.6,135.9 "/>
</svg>
